<svg width="125" height="125" viewBox="0 0 125 125" fill="none" xmlns="http://www.w3.org/2000/svg">
<rect width="125" height="125" rx="10.3409" fill="url(#paint0_linear_25138_4892)"/>
<path d="M104.933 61.0376L99.2539 59.9268C99.3572 58.7355 99.3562 57.5284 99.2401 56.284C99.2165 56.0307 99.1831 55.7773 99.1486 55.5258L99.1142 55.2656C99.0866 55.077 99.0532 54.8874 99.0187 54.7048C98.9922 54.5496 98.9646 54.3964 98.9341 54.255C98.9154 54.1587 98.8948 54.0615 98.8554 53.8847C98.8072 53.6696 98.756 53.4545 98.7019 53.2384L98.6586 53.0764C98.2749 51.6405 97.7308 50.2498 97.0361 48.9347L101.842 45.7094C102.815 45.0553 103.074 43.7333 102.42 42.761C101.786 41.8221 100.412 41.5501 99.4654 42.1845L94.6619 45.4089C94.1011 44.741 93.498 44.1134 92.8722 43.5408L92.7964 43.4711C92.6213 43.312 92.4432 43.1578 92.2612 43.0056L91.7033 42.5518L91.4003 42.9398L91.6098 42.4801C91.4691 42.3711 91.3294 42.2611 91.1858 42.157L90.9841 42.0136C89.2504 40.7732 87.3416 39.8274 85.3039 39.1998L86.4187 33.5329C86.643 32.3838 85.8893 31.2652 84.7382 31.0393C83.5683 30.8134 82.4604 31.5873 82.24 32.7167L81.1282 38.3797C77.6579 38.0723 74.2653 38.6596 71.0371 40.1407L70.5136 40.3961C70.3779 40.4628 70.245 40.5326 70.1102 40.6023L66.884 35.8105C66.2503 34.8735 64.8778 34.5985 63.9293 35.233C63.458 35.5502 63.1372 36.0314 63.028 36.5883C62.9188 37.1452 63.0339 37.7119 63.3507 38.1823L66.578 42.9732C66.1726 43.313 65.7781 43.6715 65.3973 44.0457L65.2261 44.2097C65.1237 44.3148 65.0234 44.4218 64.866 44.5908L64.7518 44.7116C64.678 44.7901 64.6042 44.8677 64.5304 44.9492L64.3307 45.181C64.1782 45.3578 64.0237 45.5346 63.8781 45.7163L63.8122 45.8027C63.0172 46.7966 62.3157 47.8927 61.7125 49.0752C59.9454 48.6479 58.1192 48.4191 56.2587 48.4191C47.3139 48.4191 39.3225 53.48 35.4822 61.4422C35.2441 61.4304 35.011 61.4245 34.7778 61.4245C25.527 61.4245 18 68.9369 18 78.1699C18 87.4049 25.525 94.9202 34.7778 94.9202C34.8437 94.9202 34.9096 94.9163 34.9795 94.9124L87.379 94.9202C87.624 94.9507 87.8808 94.9664 88.1573 94.9664C88.4259 94.9664 88.6974 94.9507 88.97 94.9359C89.1599 94.9242 89.3547 94.9114 89.5495 94.9114C97.4051 94.9114 103.559 88.8536 103.559 81.1193C103.559 75.8216 100.586 71.2154 96.2254 68.8446C96.8571 67.8605 97.4031 66.84 97.838 65.7852C98.0574 65.2519 98.2582 64.6862 98.4372 64.1009L104.117 65.2097C104.256 65.2352 104.392 65.2499 104.528 65.2499C104.954 65.2499 105.364 65.1252 105.714 64.8875C106.186 64.5713 106.506 64.09 106.617 63.5332C106.838 62.3821 106.085 61.2635 104.933 61.0376ZM70.6612 45.2203C73.2499 43.4819 76.2647 42.5636 79.3797 42.5636C81.6457 42.5636 83.9294 43.0635 85.9848 44.0083C87.136 44.5387 88.2183 45.2065 89.2278 46.0139C89.398 46.1494 89.5653 46.2938 89.7355 46.4421L89.8378 46.5334C89.9805 46.6581 90.1153 46.7878 90.2599 46.9263L90.4144 47.0736C90.5088 47.1669 90.5993 47.2622 90.6918 47.3584L90.9575 47.6393C91.0716 47.7621 91.1828 47.8907 91.294 48.0204L91.4662 48.2188C91.5951 48.3759 91.72 48.536 91.845 48.6971L92.2346 48.3965L91.9444 48.8267C92.1008 49.0359 92.2543 49.249 92.4039 49.471C92.5534 49.6929 92.6961 49.9169 92.8683 50.2036C92.9903 50.4069 93.1064 50.6132 93.2166 50.8194L93.6495 50.5867L93.2884 50.9628C93.3868 51.1475 93.4803 51.3331 93.5708 51.5217L93.6328 51.6582C93.7223 51.8507 93.8079 52.0442 93.8847 52.2288L93.922 52.327C95.9381 57.2917 95.1952 63.0608 92.0752 67.3802C91.4554 67.2673 90.8266 67.1789 90.1832 67.1504C87.1192 60.6722 80.6067 56.3361 73.4133 56.0493C71.2604 53.6588 68.6639 51.778 65.8017 50.4806C66.9932 48.3739 68.6491 46.5698 70.6612 45.2203ZM99.371 81.1163C99.371 86.5092 95.0536 90.7334 89.5456 90.7334C89.2652 90.7334 88.9867 90.7501 88.7102 90.7658C88.4288 90.7825 88.1504 90.8188 87.8759 90.7727L87.7017 90.7442L34.8083 90.7383L34.7246 90.7442C27.8028 90.7187 22.1787 85.0871 22.1787 78.1699C22.1787 71.239 27.8284 65.6006 34.7728 65.6006C35.2855 65.6006 35.8335 65.6428 36.4967 65.7341L38.1142 65.9551L38.7233 64.4436C41.617 57.2465 48.5005 52.5961 56.2537 52.5961C61.9142 52.5961 67.2283 55.0976 70.8364 59.4603L71.47 60.2263L72.4648 60.2195C72.5445 60.2195 72.6222 60.2145 72.6537 60.2096C78.9163 60.2096 84.625 64.1441 86.8565 70.0025L87.4056 71.4413L89.1451 71.3313C89.2789 71.3225 89.4118 71.3107 89.5466 71.3107C94.964 71.3107 99.371 75.7087 99.371 81.1163Z" fill="white" stroke="white" stroke-width="1.71526"/>
<defs>
<linearGradient id="paint0_linear_25138_4892" x1="-4.16278e-06" y1="-10.5469" x2="118" y2="112" gradientUnits="userSpaceOnUse">
<stop stop-color="#FF6200"/>
<stop offset="0.525" stop-color="#EEC7B6" stop-opacity="0.9"/>
<stop offset="1" stop-color="#1567FF"/>
</linearGradient>
</defs>
</svg>
